/* XPM */
static const char *fountain_16[] = {
/* width height num_colors chars_per_pixel */
"16 16 2 1", 
/* colors */
"  c #1C84E6",
". c #000000",
/* pixels */
"................",
"................",
"................",
".. . . . . .. ..",
"... . . . . ....",
"... .. . . . ...",
"..... . . ......",
".... . . .  ....",
".....      .....",
"..... .  . .....",
"......    ......",
"......    ......",
".......  .......",
".......  .......",
".......  .......",
".......  ......."
};
